HIERARCHY
ROOT Hips
{
  OFFSET -0.393568 80.9726 2.33015
  CHANNELS 6 Xposition Yposition Zposition Zrotation Xrotation Yrotation
  JOINT Spine
  {
    OFFSET 0 10.1816 0.1315
    CHANNELS 3 Zrotation Xrotation Yrotation
    JOINT Spine1
    {
      OFFSET 0 10.0835 -1.0008
      CHANNELS 3 Zrotation Xrotation Yrotation
      JOINT Spine2
      {
        OFFSET 0 9.1 -1.3734
        CHANNELS 3 Zrotation Xrotation Yrotation
        JOINT Neck
        {
          OFFSET 0 16.6717 -2.5162
          CHANNELS 3 Zrotation Xrotation Yrotation
          JOINT Head
          {
            OFFSET 0 9.6179 1.685
            CHANNELS 3 Zrotation Xrotation Yrotation
            End Site
            {
              OFFSET 0 0 0
            }
          }
        }
        JOINT LeftShoulder
        {
          OFFSET 4.5704 10.946 -2.628
          CHANNELS 3 Zrotation Xrotation Yrotation
          JOINT LeftArm
          {
            OFFSET 10.5924 -0.5246 -2.2321
            CHANNELS 3 Zrotation Xrotation Yrotation
            JOINT LeftForeArm
            {
              OFFSET 27.8415 -0.0001 0
              CHANNELS 3 Zrotation Xrotation Yrotation
              JOINT LeftHand
              {
                OFFSET 28.3288 0 0
                CHANNELS 3 Zrotation Xrotation Yrotation
                End Site
                {
                  OFFSET 0 0 0
                }
              }
            }
          }
        }
        JOINT RightShoulder
        {
          OFFSET -4.57 10.9462 -2.628
          CHANNELS 3 Zrotation Xrotation Yrotation
          JOINT RightArm
          {
            OFFSET -10.5928 -0.5248 -2.2321
            CHANNELS 3 Zrotation Xrotation Yrotation
            JOINT RightForeArm
            {
              OFFSET -27.8415 0 0
              CHANNELS 3 Zrotation Xrotation Yrotation
              JOINT RightHand
              {
                OFFSET -28.3288 0 0.0001
                CHANNELS 3 Zrotation Xrotation Yrotation
                End Site
                {
                  OFFSET 0 0 0
                }
              }
            }
          }
        }
      }
    }
  }
  JOINT LeftUpLeg
  {
    OFFSET 8.2078 -6.7517 -1.5996
    CHANNELS 3 Zrotation Xrotation Yrotation
    JOINT LeftLeg
    {
      OFFSET 0 -44.3705 0.2846
      CHANNELS 3 Zrotation Xrotation Yrotation
      JOINT LeftFoot
      {
        OFFSET 0 -44.4279 -2.9822
        CHANNELS 3 Zrotation Xrotation Yrotation
        JOINT LeftToeBase
        {
          OFFSET 0 -8.7287 10.7106
          CHANNELS 3 Zrotation Xrotation Yrotation
          End Site
          {
            OFFSET 0 0 0
          }
        }
      }
    }
  }
  JOINT RightUpLeg
  {
    OFFSET -8.2078 -6.7517 -1.5996
    CHANNELS 3 Zrotation Xrotation Yrotation
    JOINT RightLeg
    {
      OFFSET 0 -44.3705 0.2862
      CHANNELS 3 Zrotation Xrotation Yrotation
      JOINT RightFoot
      {
        OFFSET 0 -44.4277 -2.9838
        CHANNELS 3 Zrotation Xrotation Yrotation
        JOINT RightToeBase
        {
          OFFSET 0 -8.7287 10.7106
          CHANNELS 3 Zrotation Xrotation Yrotation
          End Site
          {
            OFFSET 0 0 0
          }
        }
      }
    }
  }
}
MOTION
Frames:	13
Frame Time:	0.0333333
-0.393568 80.9726 2.33015 -6.56135 44.3457 8.50809 1.13243 20.481 -0.199077 -0.29873 7.51899 -0.621689 0.049771 15.4472 -1.05272 6.26206 -28.1964 0.826322 -0.171878 -47.7936 -0.0970825 8.86971 4.03933 10.9191 -57.6973 39.8661 -8.30414 -16.0418 -10.9163 -29.579 -22.3134 -0.587728 2.33337 -1.54993 3.20404 -7.14305 61.8513 27.1589 3.52413 12.6465 6.19737 29.4348 22.6817 -2.89711 -13.9058 -27.3666 -78.1056 -40.6033 169.27 75.8988 -159.409 -3.51172 -5.11771 0.321095 6.16959 -4.75081 -6.24762 17.4672 -64.6862 11.507 22.3665 70.008 -38.3708 -5.8242 -39.4775 -2.02525 0.872583 -14.9716 1.97196 
-1.66883 88.201 15.4025 2.81188 40.7049 4.77987 -8.02185 13.0177 6.78604 -2.29722 6.64167 2.98551 -1.89386 10.9993 3.05669 5.17947 -10.8174 -7.73669 0.120225 -48.3101 -6.02417 11.5187 4.71111 8.72537 -38.9742 47.5552 -5.74224 -12.7607 -8.07962 -46.2609 -9.43312 -0.624501 -1.71584 -5.64507 1.97489 -0.816876 47.5652 12.4979 13.3834 15.2665 6.25443 40.8259 16.8879 -5.15314 -5.35304 -154.761 -79.9933 -160.647 -178.785 73.1385 -172.986 1.74483 -6.22207 -0.439349 2.04259 -1.26023 -3.86475 -1.18075 -47.1104 -4.31133 16.3491 55.4879 -28.6029 -6.39296 -21.4969 -0.653641 0.610538 -32.527 4.79262 
-3.05949 97.2097 27.8089 10.4468 38.0189 2.27319 -14.819 6.76321 9.3561 -4.13962 5.56799 4.78146 -3.72236 7.13866 5.14877 -6.09986 2.40765 -11.5914 9.05037 -45.3674 -14.4997 19.3749 6.43538 6.85701 -38.8285 57.0756 6.27258 -10.3259 0.441933 -47.8219 4.87546 -0.836455 -4.72529 -9.15 0.158616 9.09868 35.6194 0.111126 23.5128 18.9536 12.7796 35.2164 20.7873 -6.54728 4.22874 -177.327 -64.6715 -178.256 -153.839 78.4495 163.439 3.73608 2.84561 -0.228044 0.845357 0.840128 -2.11684 -8.52545 -31.0368 -8.0924 13.2056 38.4337 -21.4507 -4.17713 3.38335 1.46412 -4.1946 -15.1093 3.04821 
-4.14696 106.695 39.8201 14.5552 35.2721 0.0231535 -17.6793 3.4732 8.76247 -5.29961 4.78253 4.64355 -4.96516 4.80796 5.11993 -5.49538 23.204 -12.1083 12.2405 -50.5438 -15.5146 27.7367 7.42746 5.65006 -54.9508 59.9393 27.2879 -9.96532 15.7079 -45.4246 17.1338 -1.8116 -6.89849 -11.0202 -1.21894 18.1678 22.9742 -9.79586 28.8955 20.1951 18.5754 22.992 26.3424 -5.75603 12.4394 172.496 -56.0338 173.904 -74.1611 78.1077 85.022 4.85733 16.2818 -0.201333 1.7623 -0.230567 -2.12884 -9.66012 -18.6023 -9.11527 9.38735 26.2242 -13.1928 0.827633 28.6482 0.909319 0.284489 -0.545999 -0.778435 
-4.60097 115.285 51.6454 14.8272 31.4573 -2.65675 -16.6104 3.85863 7.08189 -5.38833 4.91965 3.35242 -5.20381 4.57481 3.83734 0.224179 34.4907 -13.3132 9.80468 -51.1089 -11.5143 32.0609 7.21008 5.23785 -67.9729 56.2536 40.92 -8.03484 30.0784 -48.745 23.5783 -3.14895 -8.4466 -11.2602 -1.20898 22.0966 12.112 -17.3452 30.9793 21.6463 19.7506 15.0153 25.7685 -3.59975 17.5432 162.779 -54.1942 164.91 -42.2016 63.7819 52.4231 6.30486 28.5768 -1.04234 1.74263 0.211853 -1.6158 -9.56526 -15.538 -11.1443 5.67106 33.3002 -4.63134 8.85927 44.1039 -3.65549 -0.576133 4.77312 -0.140086 
-4.21773 121.414 62.9909 12.5437 26.6795 -6.07715 -13.42 7.2253 5.9098 -4.5004 6.28983 2.16384 -4.44655 6.13006 2.62727 -0.0498847 33.2538 -9.58362 6.56054 -49.5525 -8.55623 31.8878 6.46294 5.58691 -74.8893 53.9017 45.2771 -2.57493 35.3255 -60.6584 20.6474 -3.91039 -8.67545 -11.4603 1.12954 17.8146 8.18103 -25.9507 37.8064 25.1064 17.1872 17.4473 15.4959 -0.799819 21.1793 153.577 -55.9693 155.586 -31.6526 49.9188 41.0375 7.85714 38.0957 -2.60768 -0.579817 1.55678 0.143141 -11.2408 -21.9939 -12.9253 1.6689 60.2835 3.5746 14.4109 47.9953 -7.09402 -2.79778 7.42857 1.67496 
-3.04248 124.402 73.7765 9.66408 22.7578 -9.93885 -10.2038 11.6576 5.67067 -3.20307 8.4118 1.72779 -3.20517 8.41204 2.17719 -2.80526 26.1571 -4.50027 4.72685 -51.4787 -6.56168 30.1765 5.92719 6.64935 -81.2479 55.6938 47.0028 1.4858 32.255 -72.4032 9.91839 -3.93697 -6.27058 -12.5319 5.17463 7.74906 14.5163 -33.1809 54.8346 26.2365 8.85661 25.9385 1.02013 0.908135 26.8963 146.286 -58.8054 147.796 -24.4656 40.3761 34.5879 8.54899 44.1903 -3.76985 -2.34452 1.70499 1.53392 -14.5557 -31.9891 -12.2595 -33.035 88.8981 43.1522 16.795 49.7319 -8.38163 -0.897236 13.1781 -1.83684 
-1.45663 124.749 84.5267 7.7692 21.8182 -13.5408 -7.99624 15.006 6.11559 -2.14858 10.1538 1.89556 -2.14991 10.133 2.34397 -6.97787 23.1678 0.155156 5.16216 -57.251 -4.5467 27.52 5.6878 8.08731 -87.256 59.6491 47.6002 1.62927 24.5262 -78.0794 -4.0865 -4.32684 -1.72101 -13.5596 9.45418 -4.70973 28.9714 -32.7302 75.9589 20.0666 -3.33504 34.5303 -12.5485 -1.38016 33.3813 141.993 -61.7045 142.468 -18.73 34.6012 30.7048 8.4155 47.2561 -4.09412 -2.19221 0.459178 1.37527 -17.1827 -45.8623 -8.13549 178.43 65.7513 -161.933 17.6623 48.8692 -8.61742 2.76638 18.4528 -6.02584 
0.167404 123.377 95.9843 7.51884 24.0612 -16.9451 -6.64388 16.2279 7.14256 -1.57119 10.552 2.29818 -1.58166 10.4516 2.74604 -7.12742 15.4019 1.15555 4.58946 -57.1958 -1.63883 23.9396 5.76987 9.89302 -89.9248 62.5458 44.946 0.138115 17.1001 -76.0103 -17.401 -5.5601 3.19847 -13.7377 12.5901 -15.6909 41.788 -25.3826 88.2971 9.60047 -11.6737 37.7852 -21.3882 -6.01383 36.4829 138.735 -65.5833 137.523 -13.1762 28.3447 27.7056 7.68865 49.0057 -3.84706 -0.974031 0.960599 0.426967 -19.6978 -64.4141 -0.528174 175.238 47.1998 -147.375 23.6371 48.5911 -11.7408 1.70775 17.4056 -5.02267 
1.48417 120.688 108.701 7.75807 27.3439 -20.5354 -5.02053 15.9106 9.07751 -1.05304 9.6076 2.81495 -1.12732 9.46703 3.26785 -8.09615 6.97958 1.53684 4.74064 -54.4052 0.0491875 19.7312 6.09017 12.0049 -89.5699 62.2687 39.2 -1.14108 13.0882 -67.0905 -26.8059 -7.09436 6.39634 -13.3758 13.7777 -20.3613 47.2849 -18.205 87.8268 4.09801 -11.8568 35.3995 -22.9029 -7.69706 35.5917 127.519 -70.4573 124.39 -8.14946 20.0505 25.7096 7.34207 51.6654 -3.80475 0.81948 1.18341 -0.475059 -31.0069 -84.2303 -1.8143 173.789 36.8149 -134.528 30.4085 47.7723 -15.174 -3.23796 14.778 -0.48072 
2.40501 116.75 122.71 5.72864 29.0679 -22.983 -1.70025 15.4357 11.8418 0.0586873 8.28681 3.56603 -0.102405 8.13868 4.026 -11.1869 4.55132 1.7073 4.85683 -53.9769 -0.524206 15.2083 6.18594 13.8776 -88.2808 58.8384 33.5208 -1.4856 11.2597 -55.7795 -30.3768 -8.19786 6.7166 -13.1797 13.1459 -18.4744 42.8967 -14.717 75.8199 5.88533 -10.0724 30.7544 -19.7135 -6.19995 31.3102 92.5347 -73.5778 87.9549 -4.11172 10.3471 24.0833 8.64862 56.0096 -4.89847 2.26483 0.027277 -0.789416 177.513 -78.8391 -153.371 174.332 34.5691 -132.098 31.6899 47.0582 -15.9441 -4.2755 11.3544 0.924343 
2.89025 111.511 137.478 0.581165 27.8951 -22.7879 3.11997 15.5752 14.3793 1.83261 7.71492 4.47306 1.64898 7.57197 4.88622 -12.5608 10.3372 1.68477 2.753 -57.1731 -2.07068 11.2317 5.58095 14.7501 -86.0674 53.6698 28.9821 0.682164 9.2955 -48.2884 -28.7562 -8.60611 4.52143 -12.8118 11.5497 -14.584 32.1311 -8.77839 55.6512 9.92664 -13.6667 27.3261 -16.9131 -4.5612 25.1163 47.98 -65.6581 42.8253 -1.69226 -0.00351273 21.1112 12.8693 59.1539 -8.02702 2.07693 0.0533731 -0.755639 178.912 -68.9109 -163.759 176.506 37.8091 -142.028 21.5001 42.9856 -9.87215 -0.676461 4.99466 -0.166704 
2.84591 105.404 151.918 -4.68304 24.3679 -19.8052 7.36376 16.1762 14.5024 3.44083 8.33305 4.98854 3.34725 8.22253 5.23804 -13.046 18.7266 2.0676 0.389143 -60.6247 -4.31679 8.68444 4.40136 13.9967 -83.1535 48.1953 25.2985 5.60743 7.08341 -44.6292 -22.5265 -8.63176 0.229267 -12.059 9.65769 -10.7641 25.6827 5.7584 35.4229 14.5986 -22.4612 24.4552 -14.3757 -3.34676 19.8044 28.1273 -51.685 23.8946 -0.654739 -4.02723 14.6464 10.7178 54.7725 -6.2238 2.80559 -1.32921 -0.408587 -176.681 -64.1435 -172.218 178.373 45.1959 -156.525 8.21105 31.8887 -2.18753 0.766088 -1.96509 -0.343131 
